<svg width="360" height="72" viewBox="0 0 360 72" fill="none" xmlns="http://www.w3.org/2000/svg">
  <defs>
    <linearGradient id="accent" x1="0" y1="0" x2="72" y2="72" gradientUnits="userSpaceOnUse">
      <stop stop-color="#FF9A3C"/>
      <stop offset="1" stop-color="#FF7A00"/>
    </linearGradient>
  </defs>

  <rect x="2" y="2" width="68" height="68" rx="16" fill="#0E1118" stroke="#2A2E3B" stroke-width="2"/>
  <path d="M20 45.5V22h10.3c6.3 0 10 3.4 10 8.7 0 5.2-3.7 8.7-10 8.7h-4.4v6.1H20Zm5.9-11h3.8c2.8 0 4.3-1.4 4.3-3.8s-1.5-3.8-4.3-3.8h-3.8v7.6Z" fill="url(#accent)"/>
  <path d="M42.5 45.5V22h5.9v23.5h-5.9Z" fill="#F4F4F5"/>

  <g fill="#F4F4F5">
    <path d="M88 47V24h8.7c5.1 0 8.2 2.7 8.2 6.8 0 2.7-1.5 4.8-3.9 5.8 2.9.8 4.8 3.2 4.8 6.4 0 4.3-3.3 7-8.8 7H88Zm5.5-13.8h2.6c2 0 3.2-1 3.2-2.6 0-1.5-1.1-2.5-3.1-2.5h-2.7v5.1Zm0 9.4h3.1c2.2 0 3.5-1 3.5-2.8 0-1.8-1.3-2.8-3.6-2.8h-3v5.6Z"/>
    <path d="M109.3 47V24h5.6v18.2h11.2V47h-16.8Z"/>
    <path d="M129.1 47V24h17.5v4.7h-12v4.4h10.9v4.6h-10.9v4.6h12.1V47h-17.6Z"/>
    <path d="M150.3 47V24h10.2c6.2 0 9.8 3.3 9.8 8.4 0 5.1-3.6 8.5-9.8 8.5h-4.6V47h-5.6Zm5.6-10.8h4c2.8 0 4.3-1.3 4.3-3.7 0-2.3-1.6-3.6-4.3-3.6h-4v7.3Z"/>
    <path d="M173.8 47V24h9.8c6 0 9.5 3.1 9.5 8.2 0 3.5-1.7 6.1-4.8 7.3l5.1 7.5h-6.4l-4.2-6.6h-3.4V47h-5.6Zm5.6-11.1h3.7c2.7 0 4.2-1.3 4.2-3.6s-1.5-3.5-4.2-3.5h-3.7v7.1Z"/>
    <path d="M196.8 47V24h5.6v23h-5.6Z"/>
    <path d="M212.8 47V28.8h-7V24h19.5v4.8h-7V47h-5.5Z"/>
    <path d="M228.2 47V24h5.6l10.4 14.5V24h5.5v23h-5.3l-10.7-14.9V47h-5.5Z"/>
    <path d="M260.1 47V28.8h-7V24h19.5v4.8h-7V47h-5.5Z"/>
  </g>
</svg>
