<svg width="128" height="128" viewBox="0 0 128 128" fill="none" xmlns="http://www.w3.org/2000/svg">
  <defs>
    <linearGradient id="bg" x1="16" y1="16" x2="112" y2="112" gradientUnits="userSpaceOnUse">
      <stop stop-color="#151922"/>
      <stop offset="1" stop-color="#0B0E14"/>
    </linearGradient>
    <linearGradient id="accent" x1="28" y1="20" x2="92" y2="92" gradientUnits="userSpaceOnUse">
      <stop stop-color="#FF9A3C"/>
      <stop offset="1" stop-color="#FF7A00"/>
    </linearGradient>
  </defs>
  <rect x="8" y="8" width="112" height="112" rx="28" fill="url(#bg)"/>
  <rect x="8" y="8" width="112" height="112" rx="28" stroke="#2A2E3B" stroke-width="4"/>
  <path d="M36 82V42h18.5c11.3 0 18 5.8 18 14.8 0 8.9-6.7 14.8-18 14.8H46.6V82H36Zm10.6-18.2h6.8c5.1 0 7.9-2.4 7.9-6.9 0-4.3-2.8-6.8-7.9-6.8h-6.8v13.7Z" fill="url(#accent)"/>
  <path d="M76.5 82V42h10.6v40H76.5Z" fill="#F4F4F5"/>
</svg>
